<svg xmlns="http://www.w3.org/2000/svg" viewBox="0 0 23.54 15.06"><defs><style>.cls-1{fill:none;stroke:#000;stroke-linecap:round;stroke-linejoin:round;stroke-width:0.5px;}</style></defs><g id="Layer_2" data-name="Layer 2"><g id="Works"><path class="cls-1" d="M8.64,10.72c-.14-.21-2-2.58-2-2.58C5.94,7.2,7,6.38,8,7.32l2.16,2V3.77c0-1.2,1.53-1.27,1.53.26V6.4c0-.87,1.52-1.1,1.52.49v0c0-.66,1.32-.75,1.32.73V8c0-1,1.41-.94,1.41.33,0,0,.05,3,0,3.15s-.66,1.41-.66,1.41l.35,1.9H10.29v-2C9.23,11.85,8.57,11.22,8.64,10.72Z"/><line class="cls-1" x1="10.29" y1="12.91" x2="15.27" y2="12.91"/><path class="cls-1" d="M6.14,9.85H5.05a4.8,4.8,0,0,1-4.8-4.8h0A4.8,4.8,0,0,1,5.05.25H18.49a4.8,4.8,0,0,1,4.8,4.8h0a4.8,4.8,0,0,1-4.8,4.8H17.4"/></g></g></svg>