<?xml version="1.0" encoding="UTF-8"?><svg xmlns="http://www.w3.org/2000/svg" width="300" height="238.7" xmlns:xlink="http://www.w3.org/1999/xlink" viewBox="0 0 300 238.7"><defs><linearGradient id="b" x1="207.66" y1="105.72" x2="236.39" y2="49.1" gradientUnits="userSpaceOnUse"><stop offset=".38" stop-color="#663500"/><stop offset=".4" stop-color="#743a00" stop-opacity=".9"/><stop offset=".52" stop-color="#d05f01" stop-opacity=".25"/><stop offset=".58" stop-color="#f56e02" stop-opacity="0"/></linearGradient><radialGradient id="c" cx="144.28" cy="57.26" fx="144.28" fy="57.26" r="139.76" gradientUnits="userSpaceOnUse"><stop offset="0" stop-color="#ffe000"/><stop offset="1" stop-color="#f5bb02"/></radialGradient><radialGradient id="d" cx="243.08" cy="39.26" fx="243.08" fy="39.26" r="99.36" gradientUnits="userSpaceOnUse"><stop offset="0" stop-color="#fff578"/><stop offset="1" stop-color="#f5b500"/></radialGradient><radialGradient id="e" cx="386.95" cy="177.59" fx="386.95" fy="177.59" r="41.54" gradientTransform="translate(-160.18) scale(.76 1)" gradientUnits="userSpaceOnUse"><stop offset="0" stop-color="#ffc23a"/><stop offset="1" stop-color="#eca615"/></radialGradient><radialGradient id="f" cx="130.29" cy="119.12" fx="130.29" fy="119.12" r="126.35" gradientUnits="userSpaceOnUse"><stop offset="0" stop-color="#fff578"/><stop offset="1" stop-color="#ffc62c"/></radialGradient><radialGradient id="g" cx="3.72" cy="111.33" fx="3.72" fy="111.33" r="49.33" gradientUnits="userSpaceOnUse"><stop offset="0" stop-color="#9a4d00"/><stop offset=".61" stop-color="#a45700"/><stop offset=".81" stop-color="#ae5e00"/><stop offset="1" stop-color="#bd6800"/></radialGradient><radialGradient id="h" cx="235.48" cy="179.11" fx="235.48" fy="179.11" r="59.72" gradientUnits="userSpaceOnUse"><stop offset="0" stop-color="#be6d1c"/><stop offset=".61" stop-color="#c47e00"/><stop offset=".8" stop-color="#c80"/><stop offset="1" stop-color="#da9800"/></radialGradient><radialGradient id="i" cx="293.84" cy="92.16" fx="293.84" fy="92.16" r="51.53" gradientUnits="userSpaceOnUse"><stop offset="0" stop-color="#792600"/><stop offset=".61" stop-color="#7f3a00"/><stop offset=".75" stop-color="#893f00"/><stop offset=".98" stop-color="#a54c00"/><stop offset="1" stop-color="#a84e00"/></radialGradient><clipPath id="j"><polygon points="297.43 51.59 299.7 27.84 194.11 .75 115.28 11.8 119.96 31.22 .29 42.42 2.06 74.37 2.06 74.37 2.2 76.85 2.06 76.78 6.26 152.39 132.94 238.7 132.94 238.64 234.38 212.23 236.29 126.54 292.08 109.81 297.15 54.63 297.15 54.63 297.43 51.59 297.43 51.59" fill="none" stroke-width="0"/></clipPath><radialGradient id="k" cx="251.11" cy="44.33" fx="251.11" fy="44.33" r="80.36" gradientUnits="userSpaceOnUse"><stop offset="0" stop-color="#fff"/><stop offset="1" stop-color="#7f7f7f"/></radialGradient><radialGradient id="l" cx="246.52" cy="166" fx="246.52" fy="166" r="98.42" xlink:href="#k"/><radialGradient id="m" cx="9.61" cy="110.06" fx="9.61" fy="110.06" r="101.26" xlink:href="#k"/></defs><g isolation="isolate"><g id="a"><polygon points="236.38 122.79 131.44 142.36 132.93 238.64 234.38 212.23 236.38 122.79" fill="#872e15" stroke-width="0"/><polygon points="131.44 141.8 2.06 76.78 6.26 152.39 132.94 238.7 131.44 141.8" fill="#702315" stroke-width="0"/><polygon points="146.39 92.7 210.25 134.36 292.08 109.81 297.15 54.63 146.39 92.7" fill="#420000" stroke-width="0"/><polygon points="131.44 139.39 2.06 74.37 6.26 149.98 132.94 236.29 131.44 139.39" fill="#cc7115" stroke-width="0"/><polygon points="236.38 120.47 131.44 140.04 132.93 236.32 234.38 209.91 236.38 120.47" fill="#dd8a25" stroke-width="0"/><polygon points="146.39 89.73 210.36 131.46 292.35 106.87 297.43 51.59 146.39 89.73" fill="#a64131" stroke-width="0"/><polygon points="115.28 11.8 120.8 34.71 135.27 40.63 164.97 27.01 115.28 11.8" fill="#933b18" stroke-width="0"/><polygon points="115.48 11.76 121.54 34.53 120.06 34.89 115.08 11.85 115.48 11.76 115.48 11.76" fill="#76220f" stroke-width="0"/><polygon points="131.12 118.86 132.28 193.49 3.81 105.96 .29 42.42 131.12 118.86" fill="#d37f00" stroke-width="0"/><polygon points="144.97 58.8 189.45 105.26 295.33 73.49 299.7 27.84 144.97 58.8" fill="#b05718" stroke-width="0"/><polygon points="297.43 51.59 299.7 27.84 144.97 58.8 169.09 84 146.39 89.73 149.68 91.87 146.39 92.7 210.25 134.36 292.08 109.81 297.15 54.63 297.15 54.63 297.43 51.59 297.43 51.59" fill="url(#b)" mix-blend-mode="multiply" opacity=".45" stroke-width="0"/><polygon points="235.33 166.67 132.28 193.49 131.12 118.86 236.82 100.16 235.33 166.67" fill="#e0a300" stroke-width="0"/><polygon points="144.97 58.8 299.7 27.84 194.11 .75 115.28 11.8 164.98 27.01 .29 42.42 131.12 118.86 236.82 100.16 144.97 58.8" fill="url(#c)" stroke-width="0"/><path d="m299.73,27.97c.7-.97-154.85,30.36-154.9,30.09-.72.11-.82,1.17-.16,1.44l92.1,40.79c.99-.34-75.9-34.91-89.42-41.19,18.8-3.84,152.39-31.12,152.39-31.13Z" fill="url(#d)" stroke-width="0"/><path d="m165.2,26.28l-49.87-14.63c-.96.47,34.86,11.39,46.1,14.96C137.73,28.98.04,42.02.13,42.43c0,.46,164.74-14.81,164.92-14.66.83-.04.92-1.27.15-1.48Z" fill="#f5b400" stroke-width="0"/><path d="m299.78,27.53c-.29.02-105.5-27.69-105.78-27.53C194,0,115.24,11.5,115.24,11.5c-.41.04-.29.68.09.62,0,0,78.89-10.61,78.89-10.61-1.24-.17,105.43,26.6,105.41,26.63.4.11.53-.52.16-.61Z" fill="#f5b400" stroke-width="0"/><path d="m131.63,118.85c.91,39.15,1.78,78.29,1.37,117.46,0,0-.54.01-.54.01-.72-19.57-1-39.14-1.14-58.72-.21-19.58-.28-39.16-.22-58.74h.54Z" fill="url(#e)" stroke-width="0"/><path d="m.45,42.42c-.28.04,133.43,76.39,130.49,75.44,0,0,105.83-17.94,105.83-17.94l.08.47c-.37.07-105.59,19.47-105.93,19.53C130.83,119.38-.7,43.25.45,42.42H.45Z" fill="url(#f)" stroke-width="0"/><path d="m6.26,152.39C3.55,116.58,1.54,78.31,0,42.43c0,0,.45-.01.45-.01,1.86,26.87,3.65,53.73,4.95,80.63.44,8.97.88,17.93,1.14,26.91l-.28,2.43h0Z" fill="url(#g)" stroke-width="0"/><path d="m234.11,209.91c-.02-36.6,1.19-73.18,2.44-109.76,0,0,.53.01.53.01-.06,18.3-.5,36.59-.78,54.89-.29,18.3-.8,36.59-1.66,54.87h-.53Z" fill="url(#h)" stroke-width="0"/><path d="m291.83,109.87c.73-13.22,2.2-29.42,3.46-42.59,1.26-13.17,2.61-26.33,4.2-39.47l.42.04c-.86,13.21-1.97,26.39-3.16,39.56-1.19,13.17-2.86,29.21-4.58,42.33l-.34.12h0Z" fill="url(#i)" stroke-width="0"/><g opacity=".3"><g clip-path="url(#j)"><circle cx="251.11" cy="44.33" r="80.36" fill="url(#k)" mix-blend-mode="overlay" stroke-width="0"/><circle cx="246.52" cy="166" r="98.42" fill="url(#l)" mix-blend-mode="overlay" stroke-width="0"/><circle cx="9.61" cy="110.06" r="101.26" fill="url(#m)" mix-blend-mode="overlay" opacity=".65" stroke-width="0"/></g></g></g></g></svg>