<?xml version="1.0" encoding="UTF-8"?><svg xmlns="http://www.w3.org/2000/svg" width="512" height="159" xmlns:xlink="http://www.w3.org/1999/xlink" viewBox="0 0 512 159"><defs><radialGradient id="b" cx="326.04" cy="64.55" fx="326.04" fy="64.55" r="82.29" gradientUnits="userSpaceOnUse"><stop offset="0" stop-color="#e99700"/><stop offset="1" stop-color="#cc6d15"/></radialGradient><radialGradient id="c" cx="407.37" cy="122.72" fx="407.37" fy="122.72" r="59.81" gradientTransform="translate(.07 .02)" gradientUnits="userSpaceOnUse"><stop offset="0" stop-color="#ef9e00"/><stop offset="1" stop-color="#dd8a25"/></radialGradient><radialGradient id="d" cx="507.7" cy="57.72" fx="507.7" fy="57.72" r="55.68" gradientTransform="translate(.07 .02)" gradientUnits="userSpaceOnUse"><stop offset="0" stop-color="#b95118"/><stop offset="1" stop-color="#a64131"/></radialGradient><radialGradient id="e" cx="404.79" cy="17.8" fx="404.79" fy="17.8" r="13.5" gradientTransform="translate(.07 .02)" gradientUnits="userSpaceOnUse"><stop offset="0" stop-color="#c85d18"/><stop offset="1" stop-color="#964328"/></radialGradient><radialGradient id="f" cx="326.04" cy="64.55" fx="326.04" fy="64.55" r="82.29" gradientUnits="userSpaceOnUse"><stop offset="0" stop-color="#f4a500"/><stop offset="1" stop-color="#d37f00"/></radialGradient><radialGradient id="g" cx="509.02" cy="26.46" fx="509.02" fy="26.46" r="82.15" gradientTransform="translate(.07 .02)" gradientUnits="userSpaceOnUse"><stop offset="0" stop-color="#d57115"/><stop offset="1" stop-color="#b05718"/></radialGradient><linearGradient id="h" x1="454.29" y1="74.43" x2="472.21" y2="39.11" gradientUnits="userSpaceOnUse"><stop offset=".46" stop-color="#663500"/><stop offset=".47" stop-color="#743a00" stop-opacity=".9"/><stop offset=".54" stop-color="#d05f01" stop-opacity=".25"/><stop offset=".57" stop-color="#f56e02" stop-opacity="0"/></linearGradient><radialGradient id="i" cx="406.7" cy="82.39" fx="406.7" fy="82.39" r="68.09" gradientTransform="translate(.07 .02)" gradientUnits="userSpaceOnUse"><stop offset="0" stop-color="#f6b100"/><stop offset="1" stop-color="#ef9e00"/></radialGradient><radialGradient id="j" cx="430.37" cy="41.05" fx="430.37" fy="41.05" r="108.77" gradientTransform="translate(.07 .02)" gradientUnits="userSpaceOnUse"><stop offset="0" stop-color="#ffe000"/><stop offset="1" stop-color="#f5bb02"/></radialGradient><radialGradient id="k" cx="384.94" cy="52.21" fx="384.94" fy="52.21" r="36.57" gradientTransform="translate(-180.8 -56.17) scale(1.71)" gradientUnits="userSpaceOnUse"><stop offset="0" stop-color="#fff578"/><stop offset="1" stop-color="#f5b500"/></radialGradient><radialGradient id="l" cx="406.74" cy="101.83" fx="406.74" fy="101.83" r="40.1" gradientTransform="translate(.07 .02)" gradientUnits="userSpaceOnUse"><stop offset="0" stop-color="#ffcd3a"/><stop offset="1" stop-color="#eca615"/></radialGradient><radialGradient id="m" cx="297.6" cy="78.59" fx="297.6" fy="78.59" r="18.05" gradientTransform="translate(-180.8 -56.17) scale(1.71)" gradientUnits="userSpaceOnUse"><stop offset="0" stop-color="#9a4d00"/><stop offset=".61" stop-color="#a45700"/><stop offset=".81" stop-color="#ae5e00"/><stop offset="1" stop-color="#bd6800"/></radialGradient><radialGradient id="n" cx="382.41" cy="103.4" fx="382.41" fy="103.4" r="21.85" gradientTransform="translate(-180.8 -56.17) scale(1.71)" gradientUnits="userSpaceOnUse"><stop offset="0" stop-color="#c35f16"/><stop offset=".52" stop-color="#d27400"/><stop offset=".71" stop-color="#d97e00"/><stop offset="1" stop-color="#ed9800"/></radialGradient><radialGradient id="o" cx="403.77" cy="71.58" fx="403.77" fy="71.58" r="18.85" gradientTransform="translate(-180.8 -56.17) scale(1.71)" gradientUnits="userSpaceOnUse"><stop offset="0" stop-color="#792600"/><stop offset=".61" stop-color="#7f3a00"/><stop offset=".75" stop-color="#893f00"/><stop offset=".98" stop-color="#a54c00"/><stop offset="1" stop-color="#a84e00"/></radialGradient><radialGradient id="p" cx="343.92" cy="81.44" fx="343.92" fy="81.44" r="46.24" gradientTransform="translate(-180.8 -56.17) scale(1.71)" gradientUnits="userSpaceOnUse"><stop offset="0" stop-color="#fff578"/><stop offset="1" stop-color="#ffc62c"/></radialGradient></defs><g isolation="isolate"><g id="a"><g><g><path d="M5.06,.21H89.31V14.95L24.77,94.23H90.86v16.76H.1v-15.82L64.64,16.97H5.06V.21Z"/><path d="M85.03,30.77h19.39l20.95,59.89h.31l20.32-59.89h18.46l-31.18,84.56c-1.45,3.62-2.87,7.08-4.27,10.39-1.4,3.31-3.1,6.23-5.12,8.77-2.02,2.53-4.53,4.55-7.52,6.05-3,1.5-6.83,2.25-11.48,2.25-4.14,0-8.22-.31-12.26-.93v-14.89c1.45,.21,2.84,.44,4.19,.7,1.34,.26,2.74,.39,4.19,.39,2.07,0,3.77-.26,5.12-.78,1.34-.52,2.46-1.27,3.34-2.25,.88-.98,1.63-2.15,2.25-3.49,.62-1.34,1.19-2.9,1.71-4.65l2.02-6.21L85.03,30.77Z"/><path d="M170.51,30.77h16.6v15.52h.31c.52-2.17,1.53-4.29,3.03-6.36,1.5-2.07,3.31-3.96,5.43-5.66,2.12-1.71,4.47-3.08,7.06-4.11,2.58-1.03,5.22-1.55,7.91-1.55,2.07,0,3.49,.05,4.27,.16,.78,.1,1.58,.21,2.4,.31v17.07c-1.24-.21-2.51-.39-3.8-.54-1.29-.16-2.56-.23-3.8-.23-3,0-5.82,.6-8.46,1.78-2.64,1.19-4.94,2.95-6.9,5.28-1.97,2.33-3.52,5.2-4.65,8.61-1.14,3.41-1.71,7.35-1.71,11.79v38.17h-17.69V30.77Z"/><path d="M234.19,75.46c0,3.1,.44,6.1,1.32,9,.88,2.9,2.2,5.43,3.96,7.6,1.76,2.17,3.98,3.91,6.67,5.2,2.69,1.29,5.9,1.94,9.62,1.94,5.17,0,9.33-1.11,12.49-3.34,3.15-2.22,5.51-5.56,7.06-10.01h16.76c-.93,4.34-2.54,8.22-4.81,11.64-2.28,3.41-5.02,6.28-8.22,8.61-3.21,2.33-6.8,4.09-10.78,5.27-3.98,1.19-8.15,1.78-12.49,1.78-6.31,0-11.9-1.03-16.76-3.1-4.86-2.07-8.97-4.96-12.33-8.69-3.36-3.72-5.9-8.17-7.6-13.34-1.71-5.17-2.56-10.86-2.56-17.07,0-5.69,.9-11.09,2.72-16.21,1.81-5.12,4.39-9.62,7.76-13.5,3.36-3.88,7.42-6.96,12.18-9.23,4.76-2.27,10.14-3.41,16.14-3.41,6.31,0,11.97,1.32,16.99,3.96,5.02,2.64,9.18,6.13,12.49,10.47,3.31,4.34,5.71,9.34,7.21,14.97,1.5,5.64,1.89,11.46,1.16,17.45h-58.96Zm41.27-11.64c-.21-2.79-.8-5.48-1.78-8.07-.98-2.58-2.33-4.83-4.03-6.75-1.71-1.91-3.78-3.46-6.21-4.65-2.43-1.19-5.15-1.78-8.15-1.78s-5.92,.54-8.46,1.63c-2.54,1.09-4.71,2.59-6.52,4.5-1.81,1.92-3.26,4.17-4.34,6.75-1.09,2.59-1.68,5.38-1.78,8.38h41.27Z"/></g><g><g mix-blend-mode="multiply" opacity=".4"><polygon points="510.17 43.85 416.04 67.63 450.92 90.38 406.71 98.63 406.7 98.28 325.92 57.69 328.54 104.9 407.64 158.79 407.64 158.75 470.98 142.26 472.17 88.76 507.01 78.31 510.17 43.85"/></g><polygon points="472.23 85.08 406.7 97.3 407.63 157.42 470.98 140.93 472.23 85.08" fill="#b75e15"/><polygon points="406.7 96.95 325.92 56.35 328.54 103.56 407.64 157.46 406.7 96.95" fill="#813b15"/><polygon points="416.04 66.29 455.91 92.3 507.01 76.97 510.17 42.52 416.04 66.29" fill="#420000"/><polygon points="406.7 95.44 325.92 54.85 328.54 102.06 407.64 155.95 406.7 95.44" fill="url(#b)"/><polygon points="472.23 83.63 406.7 95.85 407.63 155.97 470.98 139.48 472.23 83.63" fill="url(#c)"/><polygon points="416.04 64.44 455.98 90.49 507.17 75.14 510.34 40.62 416.04 64.44" fill="url(#d)"/><polygon points="396.61 15.78 400.06 30.08 409.09 33.78 427.64 25.27 396.61 15.78" fill="url(#e)"/><polygon points="396.74 15.75 400.52 29.97 399.6 30.19 396.49 15.81 396.74 15.75 396.74 15.75" fill="#842f0f"/><polygon points="406.5 82.62 407.22 129.22 327.01 74.57 324.81 34.89 406.5 82.62" fill="url(#f)"/><polygon points="415.15 45.13 442.92 74.13 509.03 54.3 511.75 25.86 510.74 26.02 415.15 45.13" fill="url(#g)"/><polygon points="510.34 40.62 511.75 25.86 509.92 26.16 415.15 45.13 430.21 60.86 416.04 64.44 418.09 65.77 416.04 66.29 455.91 92.3 507.01 76.97 510.17 42.52 510.17 42.52 510.35 40.62 510.34 40.62" fill="url(#h)" mix-blend-mode="multiply" opacity=".45"/><polygon points="471.57 112.48 407.22 129.22 406.5 82.62 472.5 70.95 471.57 112.48" fill="url(#i)"/><polygon points="415.15 45.13 511.65 25.87 511.77 25.79 445.83 8.88 396.61 15.78 427.64 25.27 324.81 34.89 406.5 82.62 472.5 70.95 415.15 45.13" fill="url(#j)"/><path d="M511.78,25.87c.44-.6-97.88,18.96-97.92,18.79-.45,.07-.51,.73-.1,.9l58.7,25.47c.62-.21-47.39-21.8-55.84-25.72,11.74-2.4,95.16-19.43,95.16-19.44Z" fill="url(#k)"/><path d="M429.86,24.82l-33.22-9.13c-.6,.29,21.77,7.11,28.79,9.34-14.8,1.48-100.77,9.62-100.72,9.87,0,.29,104.95-9.25,105.06-9.16,.52-.03,.58-.8,.09-.93Z" fill="#f5b400"/><path d="M511.81,25.6c-.18,.02-65.87-17.29-66.05-17.19,0,0-49.18,7.18-49.18,7.18-.26,.03-.18,.43,.05,.39,0,0,49.18-6.23,49.18-6.23-.77-.1,65.91,16.22,65.9,16.24,.03,.01,.16-.06,.18-.18,.01-.06-.06-.19-.08-.2Z" fill="#f5b400"/><path d="M406.71,82.62c.78,24.44,1.52,48.89,1.16,73.34,0,0-.46,0-.46,0-.61-12.22-.85-24.44-.97-36.67-.18-12.22-.24-24.45-.19-36.68h.46Z" fill="url(#l)"/><path d="M328.54,103.56c-1.69-22.36-2.95-46.26-3.91-68.66,0,0,.28,0,.28,0,1.16,16.78,2.28,33.55,3.09,50.35,.28,5.6,.55,11.2,.71,16.8l-.18,1.52h0Z" fill="url(#m)"/><path d="M470.81,139.48c-.01-22.85,.74-45.69,1.52-68.53,0,0,.33,0,.33,0-.04,11.43-.31,22.85-.49,34.27-.18,11.42-.5,22.84-1.04,34.26h-.33Z" fill="url(#n)"/><path d="M506.85,77.01c.45-8.25,1.38-18.37,2.16-26.59,.79-8.22,1.58-16.28,2.57-24.49l.32-.13c-.54,8.25-1.23,16.48-1.97,24.7-.74,8.23-1.78,18.24-2.86,26.43l-.22,.07h0Z" fill="url(#o)"/><path d="M324.91,34.9c-.17,.03,83.54,47.13,81.71,46.53,0,0,65.86-10.63,65.86-10.63l.05,.29c-.23,.04-65.93,12.15-66.14,12.19-.06-.34-82.19-47.87-81.47-48.39h0Z" fill="url(#p)"/><polygon points="324.91 34.9 325.85 35.65 329.74 102.87 328.7 102.19 324.91 34.9" fill="#cc6d15"/><path d="M511.58,25.93l-2.66,25.46-1.99,23.82-.69,.19,1.84-23.87,2.91-25.49c.46-.12,.59-.11,.59-.11Z" fill="#b74a00" mix-blend-mode="multiply" opacity=".45"/></g></g></g></g></svg>