<svg xmlns="http://www.w3.org/2000/svg" viewBox="0 0 36.84 78.11"><g id="Layer_2" data-name="Layer 2"><g id="Content"><path d="M36.05,22.05a6.1,6.1,0,0,0-4.45-3v-.69c0-5.65,0-11.29,0-16.94C31.6.37,31.26,0,30.22,0,22.36,0,14.51,0,6.65,0A1.3,1.3,0,0,0,5.24,1.44c0,5.66,0,11.33,0,17v.63L5,19.13A5.63,5.63,0,0,0,.61,22.55,8,8,0,0,0,0,25.24c-.08,2,0,4,0,6,0,7.62,0,15.24,0,22.85a5.91,5.91,0,0,0,3,5.25,6.12,6.12,0,0,0,3.18.83c1.59,0,3.17,0,4.85,0v5.72a2.69,2.69,0,0,0,.09.7c.27.81,1,.81,1.63.77.5,0,.66.14.65.64,0,2.82,0,5.63,0,8.44a1.78,1.78,0,0,0,.09.81,1.57,1.57,0,0,0,.71.73,1.16,1.16,0,0,0,1.58-1.22V67.44H21.1v9.22A1.3,1.3,0,0,0,21.89,78c.89.29,1.6-.24,1.6-1.27,0-2.83,0-5.66,0-8.49,0-.94-.13-.87.89-.87S25.84,67,25.84,66c0-1.72,0-3.43,0-5.15,0-.5.16-.62.63-.61,1.46,0,2.92,0,4.38,0a2.09,2.09,0,0,0,1.64-.57,1.08,1.08,0,0,1,.86-.25c.35.09.48,0,.64-.26s.34-.42.52-.43c.47,0,.6-.22.63-.59a1.83,1.83,0,0,0,.63-.57c.19-.3.57-.54.34-1,0,0,.13-.1.19-.17s.2-.16.22-.26a9.72,9.72,0,0,0,.32-1.76q0-14.61,0-29.22A6.11,6.11,0,0,0,36.05,22.05ZM7.58,3V2.39H29.24c0,.19,0,.37,0,.55,0,5.17,0,10.33,0,15.5,0,.54-.16.66-.67.66q-10.17,0-20.33,0c-.55,0-.71-.13-.71-.7C7.59,13.27,7.58,8.14,7.58,3ZM23,65c-1.5,0-3,0-4.5,0s-3,0-4.49,0c-.44,0-.62-.09-.61-.57,0-1.26,0-2.52,0-3.78,0-.39.12-.5.5-.5q4.58,0,9.15,0c.39,0,.51.12.5.5,0,1.27,0,2.53,0,3.79C23.52,64.9,23.4,65.05,23,65ZM34.49,54a3.62,3.62,0,0,1-3.85,3.86H6.25A3.59,3.59,0,0,1,2.4,54V39.61h0c0-4.82,0-9.64,0-14.47a3.48,3.48,0,0,1,2.3-3.47,2.83,2.83,0,0,1,1.12-.22q12.6,0,25.2,0a3.58,3.58,0,0,1,3.46,3.74q0,9.51,0,19C34.49,47.44,34.5,50.7,34.49,54ZM25.81,35.8c-1.22,0-2.44,0-3.67,0-.52,0-.64-.17-.63-.66,0-2.19,0-4.38,0-6.57a1.21,1.21,0,0,0-2.27-.72L10,41a1.24,1.24,0,0,0-.14,1.39A1.16,1.16,0,0,0,11,43c1.15,0,2.3,0,3.45,0,.41,0,.54.13.54.54,0,1.2,0,2.41,0,3.61h0c0,1.23,0,2.45,0,3.67A1.16,1.16,0,0,0,15.79,52a1.19,1.19,0,0,0,1.32-.53l2.63-3.66q3.56-5,7.12-9.94a1.25,1.25,0,0,0,.23-1.41A1.29,1.29,0,0,0,25.81,35.8ZM17.34,47.09c0-.28-.06-.42-.06-.57,0-1.48,0-3,0-4.43,0-1.05-.41-1.45-1.46-1.46H13.11L19,32.3l.12,0v4.25c0,1.16.45,1.62,1.6,1.62h3Zm3-37.44a1.5,1.5,0,0,0-.3,1.12c0,.73,0,1.46,0,2.19s.37,1.28,1.24,1.3c1.55,0,3.1,0,4.65,0A1.19,1.19,0,0,0,27.24,13c0-1.51,0-3,0-4.54a1.2,1.2,0,0,0-1.35-1.3h-2.3c-.75,0-1.5,0-2.25,0a1.71,1.71,0,0,0-.77.18c-.51.27-.73,1.09-.37,1.32A.63.63,0,0,1,20.34,9.65Zm2.06.1c0-.1.23-.25.37-.26a11.92,11.92,0,0,1,1.69,0,.55.55,0,0,1,.38.36c0,.65,0,1.31,0,2H22.38C22.38,11.16,22.37,10.45,22.4,9.75ZM10.74,14.24q2.49,0,5,0a1,1,0,0,0,1.09-1.16c0-.78,0-1.57,0-2.35s0-1.61,0-2.41a1.08,1.08,0,0,0-1.19-1.18c-1.59,0-3.17,0-4.76,0a1.07,1.07,0,0,0-1.18,1.1q0,2.46,0,4.92A1,1,0,0,0,10.74,14.24ZM12,9.75c0-.09.17-.25.27-.26.71,0,1.41,0,2.17,0v2.38H12C12,11.16,12,10.46,12,9.75Z"/></g></g></svg>